<?xml version="1.0" standalone="no"?>
<!DOCTYPE svg PUBLIC "-//W3C//DTD SVG 20010904//EN"
 "http://www.w3.org/TR/2001/REC-SVG-20010904/DTD/svg10.dtd">
<svg version="1.0" xmlns="http://www.w3.org/2000/svg"
 width="498.000000pt" height="501.000000pt" viewBox="0 0 498.000000 501.000000"
 preserveAspectRatio="xMidYMid meet">

<g transform="translate(0.000000,501.000000) scale(0.100000,-0.100000)"
fill="#000000" stroke="none">
<path d="M2587 4909 c-395 -40 -760 -234 -1002 -529 -67 -82 -177 -262 -202
-332 -14 -41 -21 -49 -38 -45 -247 59 -392 60 -580 5 -452 -132 -760 -588
-705 -1044 44 -366 263 -665 590 -805 150 -64 203 -74 400 -73 160 0 182 3
263 27 172 53 341 157 456 282 l42 46 47 -34 c187 -136 453 -238 696 -268 124
-16 365 -5 488 21 106 22 246 69 320 106 l46 23 39 -30 c90 -72 234 -137 366
-165 89 -18 276 -18 367 1 453 95 769 528 719 985 -42 380 -321 700 -686 786
l-72 17 -20 66 c-81 265 -300 547 -560 721 -69 46 -258 139 -334 164 -203 67
-445 96 -640 75z"/>
<path d="M1793 2085 c-123 -98 -283 -175 -461 -222 -88 -24 -115 -26 -282 -27
-108 0 -204 5 -230 11 -24 7 -46 10 -48 9 -1 -2 6 -66 18 -142 11 -77 31 -215
45 -309 13 -93 34 -233 45 -310 112 -747 120 -799 142 -843 26 -56 83 -114
140 -144 l43 -23 1330 0 1330 0 54 30 c66 36 115 92 140 159 10 28 28 119 40
201 46 314 112 762 157 1068 26 174 45 319 43 321 -2 3 -31 -2 -64 -10 -33 -8
-114 -17 -180 -21 -208 -10 -384 26 -574 118 l-104 51 -91 -30 c-443 -147
-896 -117 -1324 89 -67 32 -123 59 -125 58 -1 0 -21 -15 -44 -34z m-156 -412
c19 -9 46 -33 60 -55 23 -35 31 -73 74 -396 27 -196 53 -393 60 -437 16 -119
22 -220 15 -250 -11 -43 -71 -101 -120 -115 -76 -21 -160 21 -193 98 -7 18
-43 252 -79 520 -56 421 -64 492 -54 527 30 103 141 154 237 108z m972 2 c45
-23 79 -70 91 -127 18 -81 10 -994 -9 -1028 -65 -118 -192 -141 -275 -49 -19
21 -38 53 -41 71 -3 18 -5 260 -3 538 l3 505 24 33 c13 19 38 43 55 53 38 23
115 25 155 4z m978 -2 c40 -19 79 -73 88 -123 6 -31 -15 -206 -70 -610 -8 -58
-20 -141 -26 -185 -31 -237 -36 -252 -93 -302 -103 -91 -266 -9 -266 135 0 21
18 173 40 338 23 164 50 369 60 454 24 191 26 197 55 241 42 65 136 88 212 52z"/>
</g>
</svg>
