
<svg xmlns="http://www.w3.org/2000/svg" viewBox="0 0 64 64" enable-background="new 0 0 64 64">

<g transform="matrix(1 0 0 1 32.0281938326 26.5303964758)" id="MJiS6FdRVSMh2V1AQisgA"  >
<g style="" vector-effect="non-scaling-stroke"   >
		<g transform="matrix(1 0 0 1 -12.6489480725 0.7007702719)" id="oZdP35cyWVUDc-HTC-F3T"  >
<path style="stroke: none; stroke-width: 1; stroke-dasharray: none; stroke-linecap: butt; stroke-dashoffset: 0; stroke-linejoin: miter; stroke-miterlimit: 4; fill: rgb(0,0,0); fill-rule: nonzero; opacity: 1;" vector-effect="non-scaling-stroke"  transform=" translate(-19.3510519275, -32.7007702719)" d="M 25.541 28.352 C 24.678 26.5 11.881 32.467 12.744 34.319 C 14.105 37.235 18.072 38.264 21.605 36.616 C 25.138 34.967 26.9 31.268 25.541 28.352" stroke-linecap="round" />
</g>
		<g transform="matrix(1 0 0 1 12.6490087388 0.7003261375)" id="eDpqUfYM_oKgmMDfVl1FF"  >
<path style="stroke: none; stroke-width: 1; stroke-dasharray: none; stroke-linecap: butt; stroke-dashoffset: 0; stroke-linejoin: miter; stroke-miterlimit: 4; fill: rgb(0,0,0); fill-rule: nonzero; opacity: 1;" vector-effect="non-scaling-stroke"  transform=" translate(-44.6490087388, -32.7003261375)" d="M 38.459 28.352 C 37.1 31.268 38.86300000000001 34.965 42.395 36.616 C 45.928000000000004 38.262 49.895 37.235 51.256 34.319 C 52.119 32.467000000000006 39.322 26.500000000000004 38.459 28.352000000000004" stroke-linecap="round" />
</g>
</g>
</g>
<g transform="matrix(0.2 0 0 0.2 46.4997522391 38.9036694053)" id="o89gb_OBhbXW_DvqBa3FR"  >
<path style="stroke: none; stroke-width: 1; stroke-dasharray: none; stroke-linecap: butt; stroke-dashoffset: 0; stroke-linejoin: miter; stroke-miterlimit: 4; fill: rgb(0,0,0); fill-rule: nonzero; opacity: 1;" vector-effect="non-scaling-stroke"  transform=" translate(-32, -32)" d="M 31.993 2 C 20.563 17.624 14 32.007 14 43.827 C 14 53.859 22.064 62 32.001 62 C 41.946 62 50 53.859 50 43.827 C 50 32.007 43.245 17.383 31.993 2 z" stroke-linecap="round" />
</g>
<g transform="matrix(1 0 0 -1 32 43.8414096916)" id="yT_wRXYb3bCzsUc90NfkQ"  >
<path style="stroke: none; stroke-width: 1; stroke-dasharray: none; stroke-linecap: butt; stroke-dashoffset: 0; stroke-linejoin: miter; stroke-miterlimit: 4; fill: rgb(0,0,0); fill-rule: nonzero; opacity: 1;" vector-effect="non-scaling-stroke"  transform=" translate(-32, -44.7930307489)" d="M 44.584 40.279 C 36.474000000000004 45.935 27.478 45.902 19.416000000000004 40.279 C 18.446000000000005 39.602000000000004 17.571000000000005 40.774 18.229000000000003 41.857000000000006 C 20.687000000000005 45.904 25.646 49.507000000000005 32 49.507000000000005 C 38.354 49.507000000000005 43.313 45.903000000000006 45.771 41.857000000000006 C 46.429 40.77400000000001 45.554 39.60300000000001 44.584 40.279" stroke-linecap="round" />
</g>
<g transform="matrix(1 0 0 1 32 32)" id="rRw0kEMCry264bhcAfEQl"  >
<path style="stroke: none; stroke-width: 1; stroke-dasharray: none; stroke-linecap: butt; stroke-dashoffset: 0; stroke-linejoin: miter; stroke-miterlimit: 4; fill: rgb(0,0,0); fill-rule: nonzero; opacity: 1;" vector-effect="non-scaling-stroke"  transform=" translate(-32, -32)" d="M 32 2 C 15.432 2 2 15.432 2 32 C 2 48.568 15.432 62 32 62 C 48.568 62 62 48.568 62 32 C 62 15.432000000000002 48.568 2 32 2 z M 32 59.5 C 16.836 59.5 4.5 47.164 4.5 32 C 4.5 16.836 16.836 4.5 32 4.5 C 47.163 4.5 59.5 16.836 59.5 32 C 59.5 47.164 47.163 59.5 32 59.5 z" stroke-linecap="round" />
</g>
<g transform="matrix(1 0 0 1 46.4997522391 20.4969703355)" id="s42ZsYT-KVUeaZEWjy0YL"  >
<path style="stroke: none; stroke-width: 1; stroke-dasharray: none; stroke-linecap: butt; stroke-dashoffset: 0; stroke-linejoin: miter; stroke-miterlimit: 4; fill: rgb(0,0,0); fill-rule: nonzero; opacity: 1;" vector-effect="non-scaling-stroke"  transform=" translate(0, 0)" d="M 7.36795 2.09461 C 3.1319500000000007 2.1076099999999998 -3.39405 -0.9353899999999999 -6.10505 -4.187390000000001 C -6.476050000000001 -4.647390000000001 -8.24005 -3.3393900000000007 -7.7890500000000005 -2.786390000000001 C -4.6560500000000005 0.969609999999999 2.4879499999999988 4.300609999999999 7.37295 4.2836099999999995 C 8.09095 4.274609999999999 7.95795 2.0816099999999995 7.36795 2.0946099999999994" stroke-linecap="round" />
</g>
<g transform="matrix(1 0 0 1 17.5002477609 20.4969433175)" id="kuF6WwUHCaadjTXvtnncJ"  >
<path style="stroke: none; stroke-width: 1; stroke-dasharray: none; stroke-linecap: butt; stroke-dashoffset: 0; stroke-linejoin: miter; stroke-miterlimit: 4; fill: rgb(0,0,0); fill-rule: nonzero; opacity: 1;" vector-effect="non-scaling-stroke"  transform=" translate(0, 0)" d="M 7.78938 -2.78637 C 8.24038 -3.34037 6.476380000000001 -4.64737 6.10538 -4.18737 C 3.39338 -0.9353699999999998 -3.13162 2.1076300000000003 -7.36862 2.0946300000000004 C -7.95762 2.0816300000000005 -8.09162 4.2756300000000005 -7.37362 4.2836300000000005 C -2.48862 4.300630000000001 4.6563799999999995 0.9696300000000004 7.78938 -2.78637" stroke-linecap="round" />
</g>
</svg>