
<svg xmlns="http://www.w3.org/2000/svg" viewBox="0 0 64 64" enable-background="new 0 0 64 64">

<g transform="matrix(1 0 0 1 32 32)" id="2oizAmdABpPjNX5z9BCbV"  >
<path style="stroke: none; stroke-width: 1; stroke-dasharray: none; stroke-linecap: butt; stroke-dashoffset: 0; stroke-linejoin: miter; stroke-miterlimit: 4; fill: rgb(0,0,0); fill-rule: nonzero; opacity: 1;" vector-effect="non-scaling-stroke"  transform=" translate(-32, -32)" d="M 32 2 C 15.432 2 2 15.432 2 32 C 2 48.568 15.432 62 32 62 C 48.568 62 62 48.568 62 32 C 62 15.432000000000002 48.568 2 32 2 z M 32 59.5 C 16.836 59.5 4.5 47.164 4.5 32 C 4.5 16.836 16.836 4.5 32 4.5 C 47.163 4.5 59.5 16.836 59.5 32 C 59.5 47.164 47.163 59.5 32 59.5 z" stroke-linecap="round" />
</g>
<g transform="matrix(1 0 0 1 32 28.529965157)" id="Su-fBm6sSj5Khv9hn1xOf"  >
<g style="" vector-effect="non-scaling-stroke"   >
		<g transform="matrix(1 0 0 1 -11.5 0)" id="vYqvvlzlitAEcvYYJbLBR"  >
<path style="stroke: none; stroke-width: 1; stroke-dasharray: none; stroke-linecap: butt; stroke-dashoffset: 0; stroke-linejoin: miter; stroke-miterlimit: 4; fill: rgb(0,0,0); fill-rule: nonzero; opacity: 1;" vector-effect="non-scaling-stroke"  transform=" translate(-5, -5)" d="M 0 5 C 0 2.23858 2.23858 0 5 0 C 7.76142 0 10 2.23858 10 5 C 10 7.76142 7.76142 10 5 10 C 2.23858 10 0 7.76142 0 5 z" stroke-linecap="round" />
</g>
		<g transform="matrix(1 0 0 1 11.5 0)" id="VOi8CaMD5DQp-QfA9jYFn"  >
<path style="stroke: none; stroke-width: 1; stroke-dasharray: none; stroke-linecap: butt; stroke-dashoffset: 0; stroke-linejoin: miter; stroke-miterlimit: 4; fill: rgb(0,0,0); fill-rule: nonzero; opacity: 1;" vector-effect="non-scaling-stroke"  transform=" translate(-5, -5)" d="M 0 5 C 0 2.23858 2.23858 0 5 0 C 7.76142 0 10 2.23858 10 5 C 10 7.76142 7.76142 10 5 10 C 2.23858 10 0 7.76142 0 5 z" stroke-linecap="round" />
</g>
</g>
</g>
<g transform="matrix(0.984807753 0.1736481777 0.1736481777 -0.9848077531 19.3691629956 16.8668378493)" id="trJ87tmn3lZMU4zVENnCE"  >
<path style="stroke: none; stroke-width: 1; stroke-dasharray: none; stroke-linecap: butt; stroke-dashoffset: 0; stroke-linejoin: miter; stroke-miterlimit: 4; fill: rgb(0,0,0); fill-rule: nonzero; opacity: 1;" vector-effect="non-scaling-stroke"  transform=" translate(0, 0)" d="M 7.36795 2.09461 C 3.1319500000000007 2.1076099999999998 -3.39405 -0.9353899999999999 -6.10505 -4.187390000000001 C -6.476050000000001 -4.647390000000001 -8.24005 -3.3393900000000007 -7.7890500000000005 -2.786390000000001 C -4.6560500000000005 0.969609999999999 2.4879499999999988 4.300609999999999 7.37295 4.2836099999999995 C 8.09095 4.274609999999999 7.95795 2.0816099999999995 7.36795 2.0946099999999994" stroke-linecap="round" />
</g>
<g transform="matrix(0.984807753 -0.1736481777 -0.1736481777 -0.984807753 44.5744493392 16.8667883769)" id="0kDBhV-_rwrE7rsgrdarj"  >
<path style="stroke: none; stroke-width: 1; stroke-dasharray: none; stroke-linecap: butt; stroke-dashoffset: 0; stroke-linejoin: miter; stroke-miterlimit: 4; fill: rgb(0,0,0); fill-rule: nonzero; opacity: 1;" vector-effect="non-scaling-stroke"  transform=" translate(-16.637623299, -24.0003678072)" d="M 24.427 21.214 C 24.878 20.66 23.114 19.352999999999998 22.743 19.813 C 20.031 23.064999999999998 13.505999999999998 26.107999999999997 9.268999999999998 26.095 C 8.679999999999998 26.081999999999997 8.545999999999998 28.276 9.263999999999998 28.284 C 14.148999999999997 28.301 21.293999999999997 24.97 24.427 21.214" stroke-linecap="round" />
</g>
<g transform="matrix(1.1234447268 0 0 0.2407381558 32 44.9159548992)" id="oELP5VDa6wovqqraJNPH9"  >
<path style="stroke: rgb(59,45,215); stroke-width: 0; stroke-dasharray: none; stroke-linecap: butt; stroke-dashoffset: 0; stroke-linejoin: miter; stroke-miterlimit: 4; fill: rgb(0,0,0); fill-rule: nonzero; opacity: 1;" vector-effect="non-scaling-stroke"  transform=" translate(0, 0)" d="M -6.23084 -6.23084 L 6.23083 -6.23084 L 6.23083 6.23083 L -6.23084 6.23083 z" stroke-linecap="round" />
</g>
</svg>