
<svg xmlns="http://www.w3.org/2000/svg" viewBox="0 0 64 64" enable-background="new 0 0 64 64">

<g transform="matrix(1 0 0 1 32 32)" id="2oizAmdABpPjNX5z9BCbV"  >
<path style="stroke: none; stroke-width: 1; stroke-dasharray: none; stroke-linecap: butt; stroke-dashoffset: 0; stroke-linejoin: miter; stroke-miterlimit: 4; fill: rgb(0,0,0); fill-rule: nonzero; opacity: 1;" vector-effect="non-scaling-stroke"  transform=" translate(-32, -32)" d="M 32 2 C 15.432 2 2 15.432 2 32 C 2 48.568 15.432 62 32 62 C 48.568 62 62 48.568 62 32 C 62 15.432000000000002 48.568 2 32 2 z M 32 59.5 C 16.836 59.5 4.5 47.164 4.5 32 C 4.5 16.836 16.836 4.5 32 4.5 C 47.163 4.5 59.5 16.836 59.5 32 C 59.5 47.164 47.163 59.5 32 59.5 z" stroke-linecap="round" />
</g>
<g transform="matrix(1 0 0 1 32 28.9550660793)" id="Su-fBm6sSj5Khv9hn1xOf"  >
<g style="" vector-effect="non-scaling-stroke"   >
		<g transform="matrix(1 0 0 1 -11.5 0)" id="vYqvvlzlitAEcvYYJbLBR"  >
<path style="stroke: none; stroke-width: 1; stroke-dasharray: none; stroke-linecap: butt; stroke-dashoffset: 0; stroke-linejoin: miter; stroke-miterlimit: 4; fill: rgb(0,0,0); fill-rule: nonzero; opacity: 1;" vector-effect="non-scaling-stroke"  transform=" translate(-5, -5)" d="M 0 5 C 0 2.23858 2.23858 0 5 0 C 7.76142 0 10 2.23858 10 5 C 10 7.76142 7.76142 10 5 10 C 2.23858 10 0 7.76142 0 5 z" stroke-linecap="round" />
</g>
		<g transform="matrix(1 0 0 1 11.5 0)" id="VOi8CaMD5DQp-QfA9jYFn"  >
<path style="stroke: none; stroke-width: 1; stroke-dasharray: none; stroke-linecap: butt; stroke-dashoffset: 0; stroke-linejoin: miter; stroke-miterlimit: 4; fill: rgb(0,0,0); fill-rule: nonzero; opacity: 1;" vector-effect="non-scaling-stroke"  transform=" translate(-5, -5)" d="M 0 5 C 0 2.23858 2.23858 0 5 0 C 7.76142 0 10 2.23858 10 5 C 10 7.76142 7.76142 10 5 10 C 2.23858 10 0 7.76142 0 5 z" stroke-linecap="round" />
</g>
</g>
</g>
<g transform="matrix(1 0 0 -1 18.1850220264 20.5885226972)" id="trJ87tmn3lZMU4zVENnCE"  >
<path style="stroke: none; stroke-width: 1; stroke-dasharray: none; stroke-linecap: butt; stroke-dashoffset: 0; stroke-linejoin: miter; stroke-miterlimit: 4; fill: rgb(0,0,0); fill-rule: nonzero; opacity: 1;" vector-effect="non-scaling-stroke"  transform=" translate(-47.3620538581, -24.0003948252)" d="M 54.73 26.095 C 50.494 26.108 43.967999999999996 23.064999999999998 41.257 19.813 C 40.885999999999996 19.352999999999998 39.122 20.660999999999998 39.573 21.214 C 42.706 24.97 49.85 28.301 54.735 28.284 C 55.453 28.275 55.32 26.082 54.73 26.095" stroke-linecap="round" />
</g>
<g transform="matrix(1 0 0 -1 45.8149779736 20.5885497152)" id="0kDBhV-_rwrE7rsgrdarj"  >
<path style="stroke: none; stroke-width: 1; stroke-dasharray: none; stroke-linecap: butt; stroke-dashoffset: 0; stroke-linejoin: miter; stroke-miterlimit: 4; fill: rgb(0,0,0); fill-rule: nonzero; opacity: 1;" vector-effect="non-scaling-stroke"  transform=" translate(-16.637623299, -24.0003678072)" d="M 24.427 21.214 C 24.878 20.66 23.114 19.352999999999998 22.743 19.813 C 20.031 23.064999999999998 13.505999999999998 26.107999999999997 9.268999999999998 26.095 C 8.679999999999998 26.081999999999997 8.545999999999998 28.276 9.263999999999998 28.284 C 14.148999999999997 28.301 21.293999999999997 24.97 24.427 21.214" stroke-linecap="round" />
</g>
<g transform="matrix(1 0 0 1 32 45.1383259912)" id="KKu5zOILSPlsrAnGN26dy"  >
<path style="stroke: none; stroke-width: 1; stroke-dasharray: none; stroke-linecap: butt; stroke-dashoffset: 0; stroke-linejoin: miter; stroke-miterlimit: 4; fill: rgb(0,0,0); fill-rule: nonzero; opacity: 1;" vector-effect="non-scaling-stroke"  transform=" translate(-32.0002387889, -47.2612759131)" d="M 40.581 46.428 C 35.178000000000004 43.89 28.794000000000004 43.888 23.385 46.416 C 22.046000000000003 47.061 23.714000000000002 50.565999999999995 25.047 49.916 C 28.618000000000002 48.251 33.943 47.61 38.922 49.925999999999995 C 40.256 50.544999999999995 41.998999999999995 47.11299999999999 40.580999999999996 46.428" stroke-linecap="round" />
</g>
</svg>